<?xml version="1.0" encoding="utf-8"?>
<!-- Generator: Adobe Illustrator 21.0.0, SVG Export Plug-In . SVG Version: 6.00 Build 0)  -->
<svg version="1.1" id="Layer_1" xmlns="http://www.w3.org/2000/svg" xmlns:xlink="http://www.w3.org/1999/xlink" x="0px" y="0px"
	 viewBox="0 0 354.8 49.1" style="enable-background:new 0 0 354.8 49.1;" xml:space="preserve">
<style type="text/css">
	.st0{clip-path:url(#SVGID_2_);fill:#FFFFFF;}
	.st1{fill:#FFFFFF;}
	.st2{clip-path:url(#SVGID_4_);fill:#FFFFFF;}
	.st3{clip-path:url(#SVGID_6_);fill:#FFFFFF;}
	.st4{clip-path:url(#SVGID_8_);fill:#FFFFFF;}
	.st5{clip-path:url(#SVGID_10_);fill:#FFFFFF;}
	.st6{clip-path:url(#SVGID_12_);fill:#FFFFFF;}
	.st7{clip-path:url(#SVGID_14_);fill:#FFFFFF;}
	.st8{clip-path:url(#SVGID_16_);fill:#FFFFFF;}
	.st9{clip-path:url(#SVGID_18_);fill:#FFFFFF;}
	.st10{clip-path:url(#SVGID_20_);fill:#FFFFFF;}
</style>
<g>
	<defs>
		<rect id="SVGID_1_" x="2.6" y="2" width="348" height="43.6"/>
	</defs>
	<clipPath id="SVGID_2_">
		<use xlink:href="#SVGID_1_"  style="overflow:visible;"/>
	</clipPath>
	<path class="st0" d="M36.3,36.6l3.2-13.7l-3.9-0.8l0.5,14.5c0,0,0,0,0,0C36.2,36.6,36.3,36.6,36.3,36.6"/>
	<path class="st0" d="M37.1,37.3l4.8-1.4l-1.1-3.6l-4,4.5C37,37,37.1,37.1,37.1,37.3"/>
</g>
<polygon class="st1" points="42.4,30.7 49.4,25 48.2,22.1 "/>
<polygon class="st1" points="38,8.1 34.5,7.7 36.3,20.7 "/>
<g>
	<defs>
		<rect id="SVGID_3_" x="2.6" y="2" width="348" height="43.6"/>
	</defs>
	<clipPath id="SVGID_4_">
		<use xlink:href="#SVGID_3_"  style="overflow:visible;"/>
	</clipPath>
	<path class="st2" d="M19.9,9.6l-6.1,1.2l21.6,26c0,0,0.1-0.1,0.1-0.1L19.9,9.6z"/>
	<path class="st2" d="M26,29.6l-4.5,4.2l13.5,3.5c0-0.1,0.1-0.3,0.2-0.4L26,29.6z"/>
</g>
<polygon class="st1" points="5.6,19.6 4.7,24.6 22.6,30.8 "/>
<g>
	<defs>
		<rect id="SVGID_5_" x="2.6" y="2" width="348" height="43.6"/>
	</defs>
	<clipPath id="SVGID_6_">
		<use xlink:href="#SVGID_5_"  style="overflow:visible;"/>
	</clipPath>
	<path class="st3" d="M32.3,4.3L19.9,5l15.7,31.7c0.1-0.1,0.2-0.1,0.3-0.1L32.3,4.3z"/>
</g>
<polygon class="st1" points="42.4,2 40.4,20.3 47.4,3.2 "/>
<g>
	<defs>
		<rect id="SVGID_7_" x="2.6" y="2" width="348" height="43.6"/>
	</defs>
	<clipPath id="SVGID_8_">
		<use xlink:href="#SVGID_7_"  style="overflow:visible;"/>
	</clipPath>
	<path class="st4" d="M50.4,17.4l-4.5-1.9l-9.4,21.2c0.1,0,0.1,0.1,0.2,0.1L50.4,17.4z"/>
</g>
<polygon class="st1" points="53.9,28.9 51.4,24.8 42.1,33.7 "/>
<g>
	<defs>
		<rect id="SVGID_9_" x="2.6" y="2" width="348" height="43.6"/>
	</defs>
	<clipPath id="SVGID_10_">
		<use xlink:href="#SVGID_9_"  style="overflow:visible;"/>
	</clipPath>
	<path class="st5" d="M55.3,38.2l-0.8-2.9l-17.3,2.2c0,0.1,0,0.1,0,0.2L55.3,38.2z"/>
</g>
<polygon class="st1" points="14.7,16.9 12,20.5 23.4,26.9 "/>
<g>
	<defs>
		<rect id="SVGID_11_" x="2.6" y="2" width="348" height="43.6"/>
	</defs>
	<clipPath id="SVGID_12_">
		<use xlink:href="#SVGID_11_"  style="overflow:visible;"/>
	</clipPath>
	<path class="st6" d="M3.6,31.1l-1,6.5H35c0-0.1,0-0.1,0-0.2L3.6,31.1z"/>
</g>
<polygon class="st1" points="68.1,34.9 68.1,5.6 64.5,5.6 64.5,38.2 75.5,38.2 75.5,34.9 "/>
<g>
	<defs>
		<rect id="SVGID_13_" x="2.6" y="2" width="348" height="43.6"/>
	</defs>
	<clipPath id="SVGID_14_">
		<use xlink:href="#SVGID_13_"  style="overflow:visible;"/>
	</clipPath>
	<path class="st7" d="M86.5,28.7v6.2L81.3,35v-6.3H86.5z M87.2,17.6h-6.5c-1.7,0-2.7,1-2.7,2.7v3.7h3.5v-3.4h5v5.1h-5.9
		c-1.7,0-2.7,1-2.7,2.7v7.2c0,1.7,0.9,2.6,2.6,2.6c0.8,0,1.9-0.1,3.2-0.2c0.9-0.1,1.8-0.2,2.7-0.4v0.5h3.5V20.3
		C89.9,18.6,89,17.6,87.2,17.6"/>
	<path class="st7" d="M100.5,20.8v-3.2h-3.5v-6.2h-3.5v6.2h-2.4v3.2h2.4v14.7c0,1.7,1,2.7,2.7,2.7h4.3V35h-3.5V20.8H100.5z"/>
</g>
<rect x="103.4" y="17.6" class="st1" width="3.5" height="20.6"/>
<rect x="103.4" y="9.9" class="st1" width="3.6" height="4.2"/>
<g>
	<defs>
		<rect id="SVGID_15_" x="2.6" y="2" width="348" height="43.6"/>
	</defs>
	<clipPath id="SVGID_16_">
		<use xlink:href="#SVGID_15_"  style="overflow:visible;"/>
	</clipPath>
	<path class="st8" d="M118.7,17.5c-0.8,0-1.9,0.1-3.3,0.2c-0.9,0.1-1.8,0.2-2.7,0.4v-0.5h-3.5v20.6h3.5V21l5.1-0.1v17.3h3.5V20.1
		C121.4,18.4,120.5,17.5,118.7,17.5"/>
	<path class="st8" d="M132.5,35h-5.1V20.8h5.1V35z M133.3,17.6h-6.8c-1.7,0-2.7,1-2.7,2.7v15.2c0,1.7,1,2.7,2.7,2.7h6.8
		c1.7,0,2.7-1,2.7-2.7V20.3C136,18.6,135.1,17.6,133.3,17.6"/>
</g>
<polygon class="st1" points="144.7,5.6 144.7,8.9 149.7,8.9 149.7,38.2 153.3,38.2 153.3,8.9 158.2,8.9 158.2,5.6 "/>
<g>
	<defs>
		<rect id="SVGID_17_" x="2.6" y="2" width="348" height="43.6"/>
	</defs>
	<clipPath id="SVGID_18_">
		<use xlink:href="#SVGID_17_"  style="overflow:visible;"/>
	</clipPath>
	<path class="st9" d="M169.5,17.5c-0.8,0-1.9,0.1-3.2,0.3l-2.7,0.3V5.6H160v32.6h3.5V21l5.1-0.1v17.3h3.5V20.1
		C172.2,18.4,171.2,17.5,169.5,17.5"/>
	<path class="st9" d="M178.1,20.7h5v5.1h-5V20.7z M185.4,28.8l1.2-1.2v-7.3c0-1.7-1-2.7-2.7-2.7h-6.5c-1.7,0-2.7,1-2.7,2.7v15.2
		c0,1.7,1,2.7,2.7,2.7h6.5c1.7,0,2.7-1,2.7-2.7v-4h-3.5v3.6h-5v-6.3H185.4z"/>
	<path class="st9" d="M197.6,28.7v6.2l-5.2,0.1v-6.3H197.6z M198.4,17.6h-6.5c-1.7,0-2.7,1-2.7,2.7v3.7h3.5v-3.4h5v5.1h-5.9
		c-1.7,0-2.7,1-2.7,2.7v7.2c0,1.7,0.9,2.6,2.6,2.6c0.8,0,1.9-0.1,3.2-0.2c0.9-0.1,1.8-0.2,2.7-0.4v0.5h3.5V20.3
		C201.1,18.6,200.1,17.6,198.4,17.6"/>
	<path class="st9" d="M211.7,20.8v-3.2h-3.5v-6.2h-3.5v6.2h-2.4v3.2h2.4v14.7c0,1.7,1,2.7,2.7,2.7h4.3V35h-3.5V20.8H211.7z"/>
	<path class="st9" d="M222.4,17.5c-0.7,0-1.7,0.1-2.8,0.2c-0.7,0.1-1.5,0.2-2.2,0.4v-0.5h-3.5v20.6h3.5V21l4.1-0.1v4.1h3.5v-4.8
		C225,18.4,224.1,17.5,222.4,17.5"/>
	<path class="st9" d="M230,20.7h5v5.1h-5V20.7z M237.2,28.8l1.2-1.2v-7.3c0-1.7-1-2.7-2.7-2.7h-6.5c-1.7,0-2.7,1-2.7,2.7v15.2
		c0,1.7,1,2.7,2.7,2.7h6.5c1.7,0,2.7-1,2.7-2.7v-4h-3.5v3.6h-5v-6.3H237.2z"/>
	<path class="st9" d="M258.7,22.2h-6.1V8.9h6.1V22.2z M261.6,6.3c-0.5-0.5-1.2-0.8-1.9-0.8h-10.7v32.6h3.7V25.6h7.1
		c0.8,0,1.4-0.3,1.9-0.8s0.8-1.2,0.8-1.9V8.3C262.3,7.5,262.1,6.8,261.6,6.3"/>
	<path class="st9" d="M273.6,17.5c-0.7,0-1.7,0.1-2.8,0.2c-0.7,0.1-1.5,0.2-2.2,0.4v-0.5h-3.5v20.6h3.5V21l4.1-0.1v4.1h3.5v-4.8
		C276.2,18.4,275.3,17.5,273.6,17.5"/>
	<path class="st9" d="M286.4,35h-5.1V20.8h5.1V35z M287.2,17.6h-6.8c-1.7,0-2.7,1-2.7,2.7v15.2c0,1.7,1,2.7,2.7,2.7h6.8
		c1.7,0,2.7-1,2.7-2.7V20.3C289.9,18.6,289,17.6,287.2,17.6"/>
</g>
<rect x="292.5" y="9.9" class="st1" width="3.6" height="4.2"/>
<g>
	<defs>
		<rect id="SVGID_19_" x="2.6" y="2" width="348" height="43.6"/>
	</defs>
	<clipPath id="SVGID_20_">
		<use xlink:href="#SVGID_19_"  style="overflow:visible;"/>
	</clipPath>
	<path class="st10" d="M293.3,45.7c1.7,0,2.7-1,2.7-2.7V17.6h-3.5v24.9h-3v3.2"/>
	<path class="st10" d="M301.9,20.7h5v5.1h-5V20.7z M309.2,28.8l1.2-1.2v-7.3c0-1.7-1-2.7-2.7-2.7h-6.5c-1.7,0-2.7,1-2.7,2.7v15.2
		c0,1.7,1,2.7,2.7,2.7h6.5c1.7,0,2.7-1,2.7-2.7v-4h-3.5v3.6h-5v-6.3H309.2z"/>
	<path class="st10" d="M324.8,24.7v-4.4c0-1.7-1-2.7-2.7-2.7h-6.4c-1.7,0-2.7,1-2.7,2.7v15.2c0,1.7,1,2.7,2.7,2.7h6.4
		c1.7,0,2.7-1,2.7-2.7v-4.9h-3.5V35h-4.8V20.8h4.8v3.9H324.8z"/>
	<path class="st10" d="M336.6,20.8v-3.2h-3.5v-6.2h-3.5v6.2h-2.4v3.2h2.4v14.7c0,1.7,1,2.7,2.7,2.7h4.3V35h-3.5V20.8H336.6z"/>
	<path class="st10" d="M349.5,29.3l-7-5.7v-2.8h4.6v3.9h3.5v-4.4c0-1.7-1-2.7-2.7-2.7h-6.1c-1.7,0-2.7,1-2.7,2.7v3.3
		c0,1,0.4,1.8,1.2,2.4l6.9,5.7V35h-4.6v-4.4h-3.5v4.9c0,1.7,1,2.7,2.7,2.7h6.2c1.7,0,2.7-1,2.7-2.7v-3.7
		C350.7,30.7,350.3,29.9,349.5,29.3"/>
</g>
</svg>
