<?xml version="1.0" encoding="utf-8"?>
<!-- Generator: Adobe Illustrator 21.0.0, SVG Export Plug-In . SVG Version: 6.00 Build 0)  -->
<svg version="1.1" id="Layer_1" xmlns="http://www.w3.org/2000/svg" xmlns:xlink="http://www.w3.org/1999/xlink" x="0px" y="0px"
	 viewBox="0 0 354.8 49.1" style="enable-background:new 0 0 354.8 49.1;" xml:space="preserve">
<style type="text/css">
	.st0{clip-path:url(#SVGID_2_);fill:#F05C2A;}
	.st1{fill:#F05C2A;}
	.st2{clip-path:url(#SVGID_4_);fill:#F05C2A;}
	.st3{clip-path:url(#SVGID_6_);fill:#D2B202;}
	.st4{fill:#D2B202;}
	.st5{clip-path:url(#SVGID_8_);fill:#D2B202;}
	.st6{clip-path:url(#SVGID_10_);fill:#D2B202;}
	.st7{clip-path:url(#SVGID_12_);fill:#D2B202;}
	.st8{clip-path:url(#SVGID_14_);}
	.st9{clip-path:url(#SVGID_16_);}
	.st10{clip-path:url(#SVGID_18_);}
	.st11{clip-path:url(#SVGID_20_);}
</style>
<g>
	<defs>
		<rect id="SVGID_1_" x="2.2" y="1.7" width="349.3" height="43.8"/>
	</defs>
	<clipPath id="SVGID_2_">
		<use xlink:href="#SVGID_1_"  style="overflow:visible;"/>
	</clipPath>
	<path class="st0" d="M36.1,36.3l3.2-13.7l-4-0.8l0.5,14.5c0,0,0,0,0,0C35.9,36.3,36,36.3,36.1,36.3"/>
	<path class="st0" d="M36.9,37.1l4.8-1.4L40.5,32l-4,4.6C36.7,36.7,36.8,36.9,36.9,37.1"/>
</g>
<polygon class="st1" points="42.1,30.4 49.2,24.7 48,21.8 "/>
<polygon class="st1" points="37.8,7.7 34.2,7.3 36,20.3 "/>
<g>
	<defs>
		<rect id="SVGID_3_" x="2.2" y="1.7" width="349.3" height="43.8"/>
	</defs>
	<clipPath id="SVGID_4_">
		<use xlink:href="#SVGID_3_"  style="overflow:visible;"/>
	</clipPath>
	<path class="st2" d="M19.6,9.2l-6.1,1.2l21.7,26.1c0,0,0.1-0.1,0.1-0.1L19.6,9.2z"/>
	<path class="st2" d="M25.7,29.3l-4.5,4.2l13.5,3.6c0-0.1,0.1-0.3,0.2-0.4L25.7,29.3z"/>
</g>
<polygon class="st1" points="5.2,19.3 4.3,24.3 22.3,30.5 "/>
<g>
	<defs>
		<rect id="SVGID_5_" x="2.2" y="1.7" width="349.3" height="43.8"/>
	</defs>
	<clipPath id="SVGID_6_">
		<use xlink:href="#SVGID_5_"  style="overflow:visible;"/>
	</clipPath>
	<path class="st3" d="M32,3.9L19.6,4.6l15.8,31.8c0.1-0.1,0.2-0.1,0.3-0.1L32,3.9z"/>
</g>
<polygon class="st4" points="42.1,1.7 40.2,19.9 47.2,2.8 "/>
<g>
	<defs>
		<rect id="SVGID_7_" x="2.2" y="1.7" width="349.3" height="43.8"/>
	</defs>
	<clipPath id="SVGID_8_">
		<use xlink:href="#SVGID_7_"  style="overflow:visible;"/>
	</clipPath>
	<path class="st5" d="M50.2,17l-4.5-1.9l-9.4,21.3c0.1,0,0.1,0.1,0.2,0.1L50.2,17z"/>
</g>
<polygon class="st4" points="53.7,28.6 51.1,24.5 41.9,33.4 "/>
<g>
	<defs>
		<rect id="SVGID_9_" x="2.2" y="1.7" width="349.3" height="43.8"/>
	</defs>
	<clipPath id="SVGID_10_">
		<use xlink:href="#SVGID_9_"  style="overflow:visible;"/>
	</clipPath>
	<path class="st6" d="M55.1,37.9L54.3,35l-17.4,2.2c0,0.1,0,0.1,0,0.2L55.1,37.9z"/>
</g>
<polygon class="st4" points="14.4,16.6 11.7,20.2 23.1,26.6 "/>
<g>
	<defs>
		<rect id="SVGID_11_" x="2.2" y="1.7" width="349.3" height="43.8"/>
	</defs>
	<clipPath id="SVGID_12_">
		<use xlink:href="#SVGID_11_"  style="overflow:visible;"/>
	</clipPath>
	<path class="st7" d="M3.2,30.8l-1,6.6h32.5c0-0.1,0-0.1,0-0.2L3.2,30.8z"/>
</g>
<polygon points="68,34.6 68,5.2 64.3,5.2 64.3,37.9 75.3,37.9 75.3,34.6 "/>
<g>
	<defs>
		<rect id="SVGID_13_" x="2.2" y="1.7" width="349.3" height="43.8"/>
	</defs>
	<clipPath id="SVGID_14_">
		<use xlink:href="#SVGID_13_"  style="overflow:visible;"/>
	</clipPath>
	<path class="st8" d="M86.4,28.5v6.2l-5.2,0.1v-6.3H86.4z M87.1,17.3h-6.5c-1.7,0-2.7,1-2.7,2.7v3.8h3.5v-3.4h5v5.1h-6
		c-1.8,0-2.7,1-2.7,2.7v7.2c0,1.7,0.9,2.6,2.6,2.6c0.8,0,1.9-0.1,3.3-0.2c0.9-0.1,1.8-0.2,2.7-0.4v0.5h3.5V20
		C89.8,18.2,88.9,17.3,87.1,17.3"/>
	<path class="st8" d="M100.5,20.5v-3.2H97v-6.2h-3.5v6.2h-2.4v3.2h2.4v14.7c0,1.8,1,2.7,2.7,2.7h4.3v-3.2H97V20.5H100.5z"/>
</g>
<rect x="103.4" y="17.3" width="3.5" height="20.7"/>
<rect x="103.3" y="9.5" width="3.6" height="4.3"/>
<g>
	<defs>
		<rect id="SVGID_15_" x="2.2" y="1.7" width="349.3" height="43.8"/>
	</defs>
	<clipPath id="SVGID_16_">
		<use xlink:href="#SVGID_15_"  style="overflow:visible;"/>
	</clipPath>
	<path class="st9" d="M118.8,17.1c-0.8,0-2,0.1-3.3,0.2c-0.9,0.1-1.8,0.2-2.7,0.4v-0.5h-3.5v20.7h3.5V20.7l5.1-0.1v17.4h3.6V19.8
		C121.4,18.1,120.5,17.1,118.8,17.1"/>
	<path class="st9" d="M132.6,34.7h-5.1V20.5h5.1V34.7z M133.4,17.3h-6.8c-1.7,0-2.7,1-2.7,2.7v15.2c0,1.8,1,2.7,2.7,2.7h6.8
		c1.8,0,2.7-1,2.7-2.7V20C136.1,18.2,135.2,17.3,133.4,17.3"/>
</g>
<polygon points="144.8,5.2 144.8,8.6 149.8,8.6 149.8,37.9 153.5,37.9 153.5,8.6 158.4,8.6 158.4,5.2 "/>
<g>
	<defs>
		<rect id="SVGID_17_" x="2.2" y="1.7" width="349.3" height="43.8"/>
	</defs>
	<clipPath id="SVGID_18_">
		<use xlink:href="#SVGID_17_"  style="overflow:visible;"/>
	</clipPath>
	<path class="st10" d="M169.7,17.1c-0.8,0-1.9,0.1-3.3,0.3l-2.7,0.3V5.2h-3.5v32.7h3.5V20.7l5.1-0.1v17.4h3.6V19.8
		C172.4,18.1,171.4,17.1,169.7,17.1"/>
	<path class="st10" d="M178.3,20.4h5v5.1h-5V20.4z M185.6,28.5l1.2-1.2V20c0-1.8-1-2.7-2.7-2.7h-6.5c-1.7,0-2.7,1-2.7,2.7v15.2
		c0,1.8,1,2.7,2.7,2.7h6.5c1.7,0,2.7-1,2.7-2.7v-4h-3.5v3.6h-5v-6.3H185.6z"/>
	<path class="st10" d="M197.9,28.5v6.2l-5.2,0.1v-6.3H197.9z M198.7,17.3h-6.5c-1.7,0-2.7,1-2.7,2.7v3.8h3.5v-3.4h5v5.1h-6
		c-1.8,0-2.7,1-2.7,2.7v7.2c0,1.7,0.9,2.6,2.6,2.6c0.8,0,1.9-0.1,3.3-0.2c0.9-0.1,1.8-0.2,2.7-0.4v0.5h3.5V20
		C201.4,18.2,200.4,17.3,198.7,17.3"/>
	<path class="st10" d="M212,20.5v-3.2h-3.5v-6.2h-3.5v6.2h-2.4v3.2h2.4v14.7c0,1.8,1,2.7,2.7,2.7h4.3v-3.2h-3.5V20.5H212z"/>
	<path class="st10" d="M222.7,17.1c-0.7,0-1.7,0.1-2.8,0.3c-0.7,0.1-1.5,0.2-2.2,0.4v-0.5h-3.6v20.7h3.6V20.7l4.1-0.1v4.1h3.5v-4.8
		C225.4,18.1,224.5,17.1,222.7,17.1"/>
	<path class="st10" d="M230.4,20.4h5v5.1h-5V20.4z M237.7,28.5l1.2-1.2V20c0-1.8-1-2.7-2.7-2.7h-6.5c-1.7,0-2.7,1-2.7,2.7v15.2
		c0,1.8,1,2.7,2.7,2.7h6.5c1.7,0,2.7-1,2.7-2.7v-4h-3.5v3.6h-5v-6.3H237.7z"/>
	<path class="st10" d="M259.2,21.9h-6.1V8.6h6.1V21.9z M262.1,6c-0.5-0.5-1.2-0.8-1.9-0.8h-10.8v32.7h3.7V25.3h7.1
		c0.8,0,1.4-0.3,1.9-0.8s0.8-1.2,0.8-1.9V7.9C262.9,7.1,262.6,6.5,262.1,6"/>
	<path class="st10" d="M274.1,17.1c-0.7,0-1.7,0.1-2.8,0.3c-0.7,0.1-1.5,0.2-2.2,0.4v-0.5h-3.6v20.7h3.6V20.7l4.1-0.1v4.1h3.5v-4.8
		C276.8,18.1,275.9,17.1,274.1,17.1"/>
	<path class="st10" d="M287,34.7h-5.1V20.5h5.1V34.7z M287.8,17.3H281c-1.7,0-2.7,1-2.7,2.7v15.2c0,1.8,1,2.7,2.7,2.7h6.8
		c1.8,0,2.7-1,2.7-2.7V20C290.6,18.2,289.6,17.3,287.8,17.3"/>
</g>
<rect x="293.1" y="9.5" width="3.6" height="4.3"/>
<g>
	<defs>
		<rect id="SVGID_19_" x="2.2" y="1.7" width="349.3" height="43.8"/>
	</defs>
	<clipPath id="SVGID_20_">
		<use xlink:href="#SVGID_19_"  style="overflow:visible;"/>
	</clipPath>
	<path class="st11" d="M294,45.4c1.8,0,2.7-1,2.7-2.7V17.3h-3.5v25h-3v3.2"/>
	<path class="st11" d="M302.6,20.4h5v5.1h-5V20.4z M309.9,28.5l1.2-1.2V20c0-1.8-1-2.7-2.7-2.7h-6.5c-1.7,0-2.7,1-2.7,2.7v15.2
		c0,1.8,1,2.7,2.7,2.7h6.5c1.7,0,2.7-1,2.7-2.7v-4h-3.5v3.6h-5v-6.3H309.9z"/>
	<path class="st11" d="M325.6,24.4V20c0-1.8-1-2.7-2.7-2.7h-6.4c-1.7,0-2.7,1-2.7,2.7v15.2c0,1.8,1,2.7,2.7,2.7h6.4
		c1.7,0,2.7-1,2.7-2.7v-4.9h-3.5v4.4h-4.8V20.5h4.8v3.9H325.6z"/>
	<path class="st11" d="M337.4,20.5v-3.2h-3.5v-6.2h-3.5v6.2H328v3.2h2.4v14.7c0,1.8,1,2.7,2.7,2.7h4.3v-3.2h-3.5V20.5H337.4z"/>
	<path class="st11" d="M350.4,29l-7-5.7v-2.8h4.6v3.9h3.5V20c0-1.8-1-2.7-2.7-2.7h-6.1c-1.8,0-2.7,1-2.7,2.7v3.3
		c0,1,0.4,1.8,1.2,2.4l6.9,5.7v3.3h-4.6v-4.5h-3.5v4.9c0,1.8,1,2.7,2.7,2.7h6.2c1.8,0,2.7-1,2.7-2.7v-3.7
		C351.5,30.4,351.1,29.6,350.4,29"/>
</g>
</svg>
