<?xml version="1.0" encoding="utf-8"?>
<!-- Generator: Adobe Illustrator 21.0.0, SVG Export Plug-In . SVG Version: 6.00 Build 0)  -->
<svg version="1.1" id="Layer_1" xmlns="http://www.w3.org/2000/svg" xmlns:xlink="http://www.w3.org/1999/xlink" x="0px" y="0px"
	 viewBox="0 0 177 147" style="enable-background:new 0 0 177 147;" xml:space="preserve">
<style type="text/css">
	.st0{clip-path:url(#SVGID_2_);fill:#F05C2A;}
	.st1{fill:#F05C2A;}
	.st2{clip-path:url(#SVGID_4_);fill:#F05C2A;}
	.st3{clip-path:url(#SVGID_6_);fill:#D2B202;}
	.st4{fill:#D2B202;}
	.st5{clip-path:url(#SVGID_8_);fill:#D2B202;}
	.st6{clip-path:url(#SVGID_10_);fill:#D2B202;}
	.st7{clip-path:url(#SVGID_12_);fill:#D2B202;}
	.st8{clip-path:url(#SVGID_14_);}
	.st9{clip-path:url(#SVGID_16_);}
	.st10{clip-path:url(#SVGID_18_);}
	.st11{clip-path:url(#SVGID_20_);}
</style>
<g>
	<defs>
		<rect id="SVGID_1_" x="3.1" y="2.6" width="170.8" height="141.8"/>
	</defs>
	<clipPath id="SVGID_2_">
		<use xlink:href="#SVGID_1_"  style="overflow:visible;"/>
	</clipPath>
	<path class="st0" d="M112.6,114.3l10.2-44.2l-12.8-2.6l1.6,46.7c0,0,0.1,0,0.1,0C112.1,114.2,112.4,114.2,112.6,114.3"/>
	<path class="st0" d="M115.2,116.6l15.4-4.6l-3.6-11.6L114.1,115C114.6,115.4,115,116,115.2,116.6"/>
</g>
<polygon class="st1" points="132.2,95.1 155,76.7 151,67.5 "/>
<polygon class="st1" points="118,22.2 106.6,20.9 112.5,62.8 "/>
<g>
	<defs>
		<rect id="SVGID_3_" x="3.1" y="2.6" width="170.8" height="141.8"/>
	</defs>
	<clipPath id="SVGID_4_">
		<use xlink:href="#SVGID_3_"  style="overflow:visible;"/>
	</clipPath>
	<path class="st2" d="M59.6,27l-19.8,4l69.9,84c0.1-0.1,0.3-0.2,0.5-0.3L59.6,27z"/>
	<path class="st2" d="M79.4,91.7L65,105.3l43.6,11.4c0.1-0.5,0.4-0.9,0.7-1.3L79.4,91.7z"/>
</g>
<polygon class="st1" points="13.4,59.4 10.3,75.6 68.2,95.6 "/>
<g>
	<defs>
		<rect id="SVGID_5_" x="3.1" y="2.6" width="170.8" height="141.8"/>
	</defs>
	<clipPath id="SVGID_6_">
		<use xlink:href="#SVGID_5_"  style="overflow:visible;"/>
	</clipPath>
	<path class="st3" d="M99.6,9.9l-40,2.2l50.8,102.5c0.3-0.2,0.7-0.3,1.1-0.3L99.6,9.9z"/>
</g>
<polygon class="st4" points="132.1,2.6 125.9,61.5 148.4,6.4 "/>
<g>
	<defs>
		<rect id="SVGID_7_" x="3.1" y="2.6" width="170.8" height="141.8"/>
	</defs>
	<clipPath id="SVGID_8_">
		<use xlink:href="#SVGID_7_"  style="overflow:visible;"/>
	</clipPath>
	<path class="st5" d="M158.1,52.1l-14.5-6.2l-30.3,68.6c0.2,0.1,0.4,0.2,0.6,0.3L158.1,52.1z"/>
</g>
<polygon class="st4" points="169.4,89.2 161.1,76.3 131.4,105 "/>
<g>
	<defs>
		<rect id="SVGID_9_" x="3.1" y="2.6" width="170.8" height="141.8"/>
	</defs>
	<clipPath id="SVGID_10_">
		<use xlink:href="#SVGID_9_"  style="overflow:visible;"/>
	</clipPath>
	<path class="st6" d="M173.9,119.4l-2.6-9.2l-55.9,7c0,0.2,0.1,0.4,0.1,0.5L173.9,119.4z"/>
</g>
<polygon class="st4" points="42.9,50.8 34.1,62.2 70.8,83 "/>
<g>
	<defs>
		<rect id="SVGID_11_" x="3.1" y="2.6" width="170.8" height="141.8"/>
	</defs>
	<clipPath id="SVGID_12_">
		<use xlink:href="#SVGID_11_"  style="overflow:visible;"/>
	</clipPath>
	<path class="st7" d="M6.8,96.5l-3.1,21.1h104.6c0-0.2,0-0.5,0.1-0.7L6.8,96.5z"/>
</g>
<polygon points="3.1,120.5 3.1,140 9.7,140 9.7,138 5.3,138 5.3,120.5 "/>
<g>
	<defs>
		<rect id="SVGID_13_" x="3.1" y="2.6" width="170.8" height="141.8"/>
	</defs>
	<clipPath id="SVGID_14_">
		<use xlink:href="#SVGID_13_"  style="overflow:visible;"/>
	</clipPath>
	<path class="st8" d="M16.2,134.3v3.7l-3.1,0.1v-3.7H16.2z M16.7,127.7h-3.9c-1,0-1.6,0.6-1.6,1.6v2.2h2.1v-2h3v3h-3.5
		c-1,0-1.6,0.6-1.6,1.6v4.3c0,1,0.6,1.6,1.6,1.6c0.5,0,1.1-0.1,1.9-0.1c0.5-0.1,1.1-0.1,1.6-0.2v0.3h2.1v-10.7
		C18.3,128.3,17.7,127.7,16.7,127.7"/>
	<path class="st8" d="M24.6,129.6v-1.9h-2.1V124h-2.1v3.7h-1.4v1.9h1.4v8.7c0,1,0.6,1.6,1.6,1.6h2.5v-1.9h-2.1v-8.4H24.6z"/>
</g>
<rect x="26.3" y="127.7" width="2.1" height="12.3"/>
<rect x="26.3" y="123.1" width="2.1" height="2.5"/>
<g>
	<defs>
		<rect id="SVGID_15_" x="3.1" y="2.6" width="170.8" height="141.8"/>
	</defs>
	<clipPath id="SVGID_16_">
		<use xlink:href="#SVGID_15_"  style="overflow:visible;"/>
	</clipPath>
	<path class="st9" d="M35.5,127.6c-0.5,0-1.2,0.1-1.9,0.1c-0.5,0.1-1.1,0.1-1.6,0.2v-0.3h-2.1V140h2.1v-10.2l3-0.1V140h2.1v-10.8
		C37.1,128.2,36.5,127.6,35.5,127.6"/>
	<path class="st9" d="M43.7,138.1h-3v-8.4h3V138.1z M44.2,127.7h-4c-1,0-1.6,0.6-1.6,1.6v9c0,1,0.6,1.6,1.6,1.6h4
		c1,0,1.6-0.6,1.6-1.6v-9C45.8,128.3,45.2,127.7,44.2,127.7"/>
</g>
<polygon points="51,120.5 51,122.5 53.9,122.5 53.9,140 56.1,140 56.1,122.5 59,122.5 59,120.5 "/>
<g>
	<defs>
		<rect id="SVGID_17_" x="3.1" y="2.6" width="170.8" height="141.8"/>
	</defs>
	<clipPath id="SVGID_18_">
		<use xlink:href="#SVGID_17_"  style="overflow:visible;"/>
	</clipPath>
	<path class="st10" d="M65.8,127.6c-0.5,0-1.1,0.1-1.9,0.2l-1.6,0.2v-7.5h-2.1V140h2.1v-10.2l3-0.1V140h2.1v-10.8
		C67.3,128.2,66.8,127.6,65.8,127.6"/>
	<path class="st10" d="M70.9,129.5h3v3h-3V129.5z M75.2,134.4l0.7-0.7v-4.3c0-1-0.6-1.6-1.6-1.6h-3.9c-1,0-1.6,0.6-1.6,1.6v9
		c0,1,0.6,1.6,1.6,1.6h3.9c1,0,1.6-0.6,1.6-1.6V136h-2.1v2.2h-3v-3.8H75.2z"/>
	<path class="st10" d="M82.5,134.3v3.7l-3.1,0.1v-3.7H82.5z M83,127.7h-3.9c-1,0-1.6,0.6-1.6,1.6v2.2h2.1v-2h3v3H79
		c-1,0-1.6,0.6-1.6,1.6v4.3c0,1,0.6,1.6,1.6,1.6c0.5,0,1.1-0.1,1.9-0.1c0.5-0.1,1.1-0.1,1.6-0.2v0.3h2.1v-10.7
		C84.6,128.3,84,127.7,83,127.7"/>
	<path class="st10" d="M90.9,129.6v-1.9h-2.1V124h-2.1v3.7h-1.4v1.9h1.4v8.7c0,1,0.6,1.6,1.6,1.6h2.5v-1.9h-2.1v-8.4H90.9z"/>
	<path class="st10" d="M97.3,127.6c-0.4,0-1,0.1-1.7,0.1c-0.4,0.1-0.9,0.1-1.3,0.2v-0.3h-2.1V140h2.1v-10.2l2.5-0.1v2.4h2.1v-2.9
		C98.8,128.2,98.3,127.6,97.3,127.6"/>
	<path class="st10" d="M101.8,129.5h3v3h-3V129.5z M106.1,134.4l0.7-0.7v-4.3c0-1-0.6-1.6-1.6-1.6h-3.9c-1,0-1.6,0.6-1.6,1.6v9
		c0,1,0.6,1.6,1.6,1.6h3.9c1,0,1.6-0.6,1.6-1.6V136h-2.1v2.2h-3v-3.8H106.1z"/>
	<path class="st10" d="M118.9,130.5h-3.6v-7.9h3.6V130.5z M120.6,121c-0.3-0.3-0.7-0.4-1.1-0.4h-6.4V140h2.2v-7.5h4.2
		c0.5,0,0.8-0.2,1.2-0.5c0.3-0.3,0.5-0.7,0.5-1.2v-8.7C121.1,121.7,120.9,121.3,120.6,121"/>
	<path class="st10" d="M127.8,127.6c-0.4,0-1,0.1-1.7,0.1c-0.4,0.1-0.9,0.1-1.3,0.2v-0.3h-2.1V140h2.1v-10.2l2.5-0.1v2.4h2.1v-2.9
		C129.4,128.2,128.8,127.6,127.8,127.6"/>
	<path class="st10" d="M135.4,138.1h-3v-8.4h3V138.1z M135.9,127.7h-4c-1,0-1.6,0.6-1.6,1.6v9c0,1,0.6,1.6,1.6,1.6h4
		c1,0,1.6-0.6,1.6-1.6v-9C137.5,128.3,137,127.7,135.9,127.7"/>
</g>
<rect x="139.1" y="123.1" width="2.1" height="2.5"/>
<g>
	<defs>
		<rect id="SVGID_19_" x="3.1" y="2.6" width="170.8" height="141.8"/>
	</defs>
	<clipPath id="SVGID_20_">
		<use xlink:href="#SVGID_19_"  style="overflow:visible;"/>
	</clipPath>
	<path class="st11" d="M139.6,144.4c1,0,1.6-0.6,1.6-1.6v-15.1h-2.1v14.8h-1.8v1.9"/>
	<path class="st11" d="M144.7,129.5h3v3h-3V129.5z M149,134.4l0.7-0.7v-4.3c0-1-0.6-1.6-1.6-1.6h-3.9c-1,0-1.6,0.6-1.6,1.6v9
		c0,1,0.6,1.6,1.6,1.6h3.9c1,0,1.6-0.6,1.6-1.6V136h-2.1v2.2h-3v-3.8H149z"/>
	<path class="st11" d="M158.4,131.9v-2.6c0-1-0.6-1.6-1.6-1.6h-3.8c-1,0-1.6,0.6-1.6,1.6v9c0,1,0.6,1.6,1.6,1.6h3.8
		c1,0,1.6-0.6,1.6-1.6v-2.9h-2.1v2.6h-2.8v-8.4h2.8v2.3H158.4z"/>
	<path class="st11" d="M165.4,129.6v-1.9h-2.1V124h-2.1v3.7h-1.4v1.9h1.4v8.7c0,1,0.6,1.6,1.6,1.6h2.5v-1.9h-2.1v-8.4H165.4z"/>
	<path class="st11" d="M173.1,134.7l-4.2-3.4v-1.7h2.8v2.3h2.1v-2.6c0-1-0.6-1.6-1.6-1.6h-3.6c-1,0-1.6,0.6-1.6,1.6v2
		c0,0.6,0.2,1.1,0.7,1.5l4.1,3.4v2h-2.8v-2.7h-2.1v2.9c0,1,0.6,1.6,1.6,1.6h3.7c1,0,1.6-0.6,1.6-1.6v-2.2
		C173.8,135.5,173.5,135,173.1,134.7"/>
</g>
<rect x="26.5" y="123" width="2.1" height="2.5"/>
<polygon points="51.2,120.4 51.2,122.4 54.1,122.4 54.1,139.9 56.3,139.9 56.3,122.4 59.2,122.4 59.2,120.4 "/>
<rect x="139.3" y="123" width="2.1" height="2.5"/>
</svg>
